<?xml version="1.0" standalone="no"?><!-- Generator: Gravit.io --><svg xmlns="http://www.w3.org/2000/svg" xmlns:xlink="http://www.w3.org/1999/xlink" style="isolation:isolate" viewBox="0 0 576 512" width="576" height="512"><defs><clipPath id="_clipPath_SODiCpx2lgHS0DhIE1AvFPB7W79W1n9x"><rect width="576" height="512"/></clipPath></defs><g clip-path="url(#_clipPath_SODiCpx2lgHS0DhIE1AvFPB7W79W1n9x)"><path d=" M 571.31 193.94 L 548.68 171.31 C 542.43 165.06 532.3 165.06 526.05 171.31 L 514.74 182.62 L 485.84 153.72 C 491.47 132.41 486.2 108.82 469.49 92.11 L 424.24 46.86 C 361.76 -15.62 260.45 -15.62 197.96 46.86 L 288.47 92.11 L 288.47 110.86 C 288.47 127.83 295.21 144.11 307.22 156.11 L 356.36 205.25 C 373.07 221.96 396.66 227.23 417.97 221.6 L 446.87 250.5 L 435.56 261.81 C 429.31 268.06 429.31 278.19 435.56 284.44 L 458.19 307.07 C 464.44 313.32 474.57 313.32 480.82 307.07 L 571.33 216.56 C 577.56 210.32 577.56 200.19 571.31 193.94 L 571.31 193.94 Z  M 284.59 178.74 C 280.89 175.04 277.75 170.95 274.74 166.79 L 19.64 404.96 C -5.93 428.84 -6.62 469.15 18.11 493.89 C 42.84 518.63 83.16 517.94 107.04 492.36 L 345.17 237.29 C 341.21 234.38 337.27 231.42 333.73 227.88 L 284.59 178.74 L 284.59 178.74 Z " fill="rgb(255,255,255)"/></g></svg>